<svg xmlns="http://www.w3.org/2000/svg" width="88" height="80" viewBox="0 0 11 10" shape-rendering="crispEdges">
  <g fill="#000000">
    <rect x="3" y="0" width="2" height="1"/>
    <rect x="6" y="0" width="2" height="1"/>
    <rect x="2" y="1" width="1" height="2"/>
    <rect x="5" y="1" width="1" height="1"/>
    <rect x="8" y="1" width="1" height="2"/>
    <rect x="6" y="2" width="1" height="1"/>
    <rect x="3" y="3" width="6" height="1"/>
    <rect x="2" y="4" width="2" height="1"/>
    <rect x="5" y="4" width="1" height="5"/>
    <rect x="9" y="4" width="1" height="1"/>
    <rect x="1" y="5" width="1" height="1"/>
    <rect x="3" y="5" width="1" height="3"/>
    <rect x="10" y="5" width="1" height="3"/>
    <rect x="0" y="6" width="2" height="1"/>
    <rect x="8" y="6" width="1" height="1"/>
    <rect x="1" y="7" width="1" height="1"/>
    <rect x="2" y="8" width="2" height="1"/>
    <rect x="9" y="8" width="1" height="1"/>
    <rect x="3" y="9" width="6" height="1"/>
  </g>
  <g fill="#34d399">
    <rect x="3" y="1" width="2" height="1"/>
    <rect x="6" y="1" width="2" height="1"/>
    <rect x="3" y="2" width="3" height="1"/>
    <rect x="7" y="2" width="1" height="1"/>
    <rect x="4" y="4" width="1" height="5"/>
  </g>
  <g fill="#ececec">
    <rect x="6" y="4" width="3" height="1"/>
    <rect x="2" y="5" width="1" height="3"/>
    <rect x="6" y="5" width="4" height="1"/>
    <rect x="6" y="6" width="2" height="1"/>
    <rect x="9" y="6" width="1" height="1"/>
    <rect x="6" y="7" width="4" height="1"/>
    <rect x="6" y="8" width="3" height="1"/>
  </g>
</svg>
